<?xml version="1.0"?>
<!DOCTYPE svg PUBLIC "-//W3C//DTD SVG 1.1//EN"
         "http://www.w3.org/Graphics/SVG/1.1/DTD/svg11.dtd"[
<!ENTITY EaseInOutTimes "0;1">
<!ENTITY EaseInOutSplines ".5 0 .5 1">
<!ENTITY CycleTimes "0;.5;1">
<!ENTITY CycleSplines ".5 0 .5 1;.5 0 .5 1">
<!ENTITY EaseInTimes "0;1">
<!ENTITY EaseInSplines ".5 0 1 .5">
<!ENTITY EaseOutTimes "0;1">
<!ENTITY EaseOutSplines "0 .5 .5 1">
<!ENTITY ldquo "&#8220;">
<!ENTITY rdquo "&#8221;">

]>
<!-- *************************************************************************** -->
<!-- *************************************************************************** -->
<!-- ** Author: Peter Garza                                                   ** -->
<!-- ** Original version handcrafted lovingly in Notepad and Wordpad!         ** -->
<!-- ** (becuase Notepad can only handle files up to 64k)                     ** -->
<!-- *************************************************************************** -->
<!-- ** Current version edited using jEdit (www.jedit.org)                    ** -->
<!-- *************************************************************************** -->
<!-- *************************************************************************** -->

<svg height="450" version="1.1" viewBox="0 0 800 450" width="800" x="0" xmlns="http://www.w3.org/2000/svg" xmlns:xlink="http://www.w3.org/1999/xlink" y="0">
<!-- *************** -->
<!-- **  BAMBOO   ** -->
<!-- *************** -->
  <!-- Bamboo segment primitive -->
  <g id="joint" fill="black" stroke="none">
    <ellipse id="joint-whitemask" cx="0" cy="2" rx="10" ry="3" fill="white" />
    <ellipse id="bottomjoint" cx="0" cy="0" rx="10" ry="3" />
    <rect id="stalk" x="-7.5" y="-100" width="15" height="100" />
  </g>

  <!-- Bamboo bit for picnic scene -->
  <g id="bamboo-munchie">
    <use xlink:href="#joint" />
    <use xlink:href="#joint" x="0" y="-100" />
    <use xlink:href="#leaf" transform="rotate(-15)" />
    <use xlink:href="#leaf" transform="rotate(-60)" />
  </g>

  <!-- Bamboo leaf and branches -->
  <!-- Center of rotation is at 0,0 -->
  <path id="leaf" d="M0 75 c -16 -100 16 -100 0 0 z" />
  <g id="branch1">
    <use xlink:href="#leaf" transform="rotate(-15)" />
    <use xlink:href="#leaf" transform="rotate(-60)" />
    <use xlink:href="#leaf" transform="translate(8 8) rotate(-25) scale(1.3) " />
    <use xlink:href="#leaf" transform="translate(70 55) rotate(-15) scale(1.2) " />
    <use xlink:href="#leaf" transform="translate(110 90) rotate(-10)" />
    <use xlink:href="#leaf" transform="translate(115 100) rotate(-30)" />
  </g>
  <g id="branch2">
    <use xlink:href="#leaf" transform="rotate(-25) scale(1.3)" />
    <use xlink:href="#leaf" transform="rotate(-10) scale(1.4)" />
    <use xlink:href="#leaf" transform="translate(50 10) rotate(-5) scale(1.2)" />
    <use xlink:href="#leaf" transform="translate(100 30) rotate(10) scale(1.2)" />
    <use xlink:href="#leaf" transform="translate(100 30) rotate(-8) scale(1.2)" />
  </g>
  <g id="branch3">
    <use xlink:href="#leaf" transform="rotate(-65) scale(1.2)" />
    <use xlink:href="#leaf" transform="rotate(-80)" />
    <use xlink:href="#leaf" transform="rotate(-110)" />
    <use xlink:href="#leaf" transform="translate(125 15) rotate(-85)" />
    <use xlink:href="#leaf" transform="translate(125 15) rotate(-65)" />
    <use xlink:href="#leaf" transform="translate(125 15) rotate(-40)" />
  </g>


  <!-- Bamboo stalks -->
  <!-- Stack several joints from bottom to top.  Add some branches -->
  <g id="bamboostalk1">
    <use xlink:href="#joint" />
    <use xlink:href="#joint" x="0" y="-100" />
    <use xlink:href="#joint" x="0" y="-200" />
    <use xlink:href="#joint" x="0" y="-300" />
    <use xlink:href="#joint" x="0" y="-400" />
    <use xlink:href="#joint" x="0" y="-500" />
    <use xlink:href="#joint" x="0" y="-600" />
    <use xlink:href="#joint" x="0" y="-700" />
    <use xlink:href="#joint" x="0" y="-800" />
    <use xlink:href="#branch1" x="60" y="-420" />
    <use xlink:href="#branch2" x="55" y="-400" transform="scale(-1,1)" />
    <use xlink:href="#branch3" x="50" y="-500" />
    <use xlink:href="#branch1" x="53" y="-600" transform="scale(-1,1)" />
    <use xlink:href="#branch3" x="55" y="-600" transform="rotate(10 47 -600) scale(-1,1)" />
    <use xlink:href="#branch2" x="50" y="-750" />
    <use xlink:href="#branch1" x="-5" y="-880" transform="rotate(-120 -5 -880)" />
  </g>
  <g id="bamboostalk2">
    <use xlink:href="#joint" />
    <use xlink:href="#joint" x="0" y="-100" />
    <use xlink:href="#joint" x="0" y="-200" />
    <use xlink:href="#joint" x="0" y="-300" />
    <use xlink:href="#joint" x="0" y="-400" />
    <use xlink:href="#joint" x="0" y="-500" />
    <use xlink:href="#joint" x="0" y="-600" />
    <use xlink:href="#joint" x="0" y="-700" />
    <use xlink:href="#joint" x="0" y="-800" />
    <use xlink:href="#branch3" x="52" y="-320" />
    <use xlink:href="#branch1" x="50" y="-365" transform="scale(-1,1)" />
    <use xlink:href="#branch1" x="60" y="-450" transform="rotate(-20 60 -450)" />
    <use xlink:href="#branch2" x="48" y="-550" transform="scale(-1,1)" />
    <use xlink:href="#branch3" x="51" y="-630" transform="rotate(10 47 -600) scale(-1,1)" />
    <use xlink:href="#branch1" x="43" y="-750" />
    <use xlink:href="#branch2" x="-7" y="-920" transform="rotate(10 -7 -920) scale(-1,1)" />
  </g>
  <g id="bamboobit1">
    <use xlink:href="#joint" />
    <use xlink:href="#joint" x="0" y="-100" />
    <use xlink:href="#joint" x="0" y="-200" />
  </g>
  <g id="bamboobit2">
    <use xlink:href="#joint" />
    <use xlink:href="#joint" x="0" y="-100" />
    <use xlink:href="#joint" x="0" y="-200" />
    <use xlink:href="#branch3" x="20" y="-120" />
  </g>

  <!-- Bamboo trees from the top -->
  <g id="treetop-1">
    <use xlink:href="#branch1" transform="rotate(0 -2 -2)" />
    <use xlink:href="#branch1" transform="rotate(60 -2 -2)" />
    <use xlink:href="#branch3" transform="rotate(120 -2 -2)" />
    <use xlink:href="#branch1" transform="rotate(180 -2 -2)" />
    <use xlink:href="#branch3" transform="rotate(240 -2 -2)" />

    <use xlink:href="#branch3" transform="rotate(15)" />
    <use xlink:href="#branch1" transform="rotate(75)" />
    <use xlink:href="#branch3" transform="rotate(145)" />
    <use xlink:href="#branch1" transform="rotate(267)" />
    <use xlink:href="#branch1" transform="rotate(315)" />

    <use xlink:href="#branch1" transform="rotate(34 -20 -10)" />
    <use xlink:href="#branch3" transform="rotate(88 -20 -10)" />
    <use xlink:href="#branch3" transform="rotate(166 -20 -10)" />
    <use xlink:href="#branch1" transform="rotate(304 -20 -10)" />
    <use xlink:href="#branch1" transform="rotate(332 -20 -10)" />

    <use xlink:href="#branch3" transform="rotate(48 -30 -15)" />
    <use xlink:href="#branch3" transform="rotate(102 -30 -15)" />
    <use xlink:href="#branch1" transform="rotate(198 -30 -15)" />
    <use xlink:href="#branch3" transform="rotate(215 -30 -15)" />
    <use xlink:href="#branch3" transform="rotate(350 -30 -15)" />
  </g>
  <g id="treetop-2">
    <use xlink:href="#branch3" transform="rotate(0 -2 -2)" />
    <use xlink:href="#branch3" transform="rotate(60 -2 -2)" />
    <use xlink:href="#branch1" transform="rotate(120 -2 -2)" />
    <use xlink:href="#branch1" transform="rotate(180 -2 -2)" />
    <use xlink:href="#branch1" transform="rotate(240 -2 -2)" />

    <use xlink:href="#branch2" transform="rotate(20)" />
    <use xlink:href="#branch3" transform="rotate(70)" />
    <use xlink:href="#branch3" transform="rotate(130)" />
    <use xlink:href="#branch2" transform="rotate(255)" />
    <use xlink:href="#branch1" transform="rotate(335)" />

    <use xlink:href="#branch1" transform="rotate(28 -20 -10)" />
    <use xlink:href="#branch1" transform="rotate(80 -20 -10)" />
    <use xlink:href="#branch3" transform="rotate(177 -20 -10)" />
    <use xlink:href="#branch3" transform="rotate(309 -20 -10)" />
    <use xlink:href="#branch1" transform="rotate(329 -20 -10)" />

    <use xlink:href="#branch1" transform="rotate(53 -30 -15)" />
    <use xlink:href="#branch3" transform="rotate(110 -30 -15)" />
    <use xlink:href="#branch3" transform="rotate(205 -30 -15)" />
    <use xlink:href="#branch3" transform="rotate(295 -30 -15)" />
    <use xlink:href="#branch1" transform="rotate(340 -30 -15)" />
  </g>
</svg>
