<?xml version="1.0"?>
<!DOCTYPE svg PUBLIC "-//W3C//DTD SVG 1.1//EN"
         "http://www.w3.org/Graphics/SVG/1.1/DTD/svg11.dtd"[
<!ENTITY EaseInOutTimes "0;1">
<!ENTITY EaseInOutSplines ".5 0 .5 1">
<!ENTITY CycleTimes "0;.5;1">
<!ENTITY CycleSplines ".5 0 .5 1;.5 0 .5 1">
<!ENTITY EaseInTimes "0;1">
<!ENTITY EaseInSplines ".5 0 1 .5">
<!ENTITY EaseOutTimes "0;1">
<!ENTITY EaseOutSplines "0 .5 .5 1">
<!ENTITY ldquo "&#8220;">
<!ENTITY rdquo "&#8221;">

]>
<!-- *************************************************************************** -->
<!-- *************************************************************************** -->
<!-- ** Author: Peter Garza                                                   ** -->
<!-- ** Original version handcrafted lovingly in Notepad and Wordpad!         ** -->
<!-- ** (becuase Notepad can only handle files up to 64k)                     ** -->
<!-- *************************************************************************** -->
<!-- ** Current version edited using jEdit (www.jedit.org)                    ** -->
<!-- *************************************************************************** -->
<!-- *************************************************************************** -->

<svg height="450" version="1.1" viewBox="0 0 800 450" width="800" x="0" xmlns="http://www.w3.org/2000/svg" xmlns:xlink="http://www.w3.org/1999/xlink" y="0">

<!-- *************** -->
<!-- **  FLOWER   ** -->
<!-- *************** -->
  <!-- Basic flower petal -->
  <ellipse id="petal-front" cx="24" cy="0" rx="20" ry="3" fill="red" stroke="black" stroke-width="1" />
  <path id="petal-rear" d="M 24 0 c -35 -10 -35 10 0 0 z" fill="black" />

  <!-- One layer of petals -->
  <g id="petallayer-front">
    <use xlink:href="#petal-front" />
    <use xlink:href="#petal-front" transform="rotate(90)" />
    <use xlink:href="#petal-front" transform="rotate(180)" />
    <use xlink:href="#petal-front" transform="rotate(270)" />
  </g>
  <g id="baselayer">
    <use xlink:href="#petal-rear" />
    <use xlink:href="#petal-rear" transform="rotate(90)" />
    <use xlink:href="#petal-rear" transform="rotate(180)" />
    <use xlink:href="#petal-rear" transform="rotate(270)" />
  </g>

  <!-- Use layer to make flower -->
  <g id="bloom-front">
    <use xlink:href="#petallayer-front" />
    <use xlink:href="#petallayer-front" transform="rotate(15)" />
    <use xlink:href="#petallayer-front" transform="rotate(75)" />
    <use xlink:href="#petallayer-front" transform="rotate(30)" />
    <use xlink:href="#petallayer-front" transform="rotate(60)" />
    <use xlink:href="#petallayer-front" transform="rotate(45)" />
    <circle id="center" cx="0" cy="0" r="10" fill="black" />
  </g>
  <g id="flowerbase">
    <use xlink:href="#baselayer" />
    <use xlink:href="#baselayer" transform="rotate(15)" />
    <use xlink:href="#baselayer" transform="rotate(75)" />
    <use xlink:href="#baselayer" transform="rotate(30)" />
    <use xlink:href="#baselayer" transform="rotate(60)" />
    <use xlink:href="#baselayer" transform="rotate(45)" />
  </g>
  <g id="bloom-rear">
    <use xlink:href="#petallayer-front" />
    <use xlink:href="#petallayer-front" transform="rotate(15)" />
    <use xlink:href="#petallayer-front" transform="rotate(75)" />
    <use xlink:href="#petallayer-front" transform="rotate(30)" />
    <use xlink:href="#petallayer-front" transform="rotate(60)" />
    <use xlink:href="#petallayer-front" transform="rotate(45)" />
    <use xlink:href="#flowerbase" />
  </g>

  <!-- Flower and stem -->
  <g id="flower">
    <path id="stem" d="M 0 0 q 0 -45 -20 -60" stroke="black" stroke-width="3" fill="none" />
    <use xlink:href="#bloom-front" transform="translate(-20 -60) rotate(-30) scale(1,0.2)" />
  </g>

  <g id="flower-front">
    <path id="stem-front" d="M 0 0 q 0 -45 -5 -60" stroke="black" stroke-width="3" fill="none" />
    <use xlink:href="#bloom-front" transform="translate(-5 -60)" />
  </g>

  <!-- ******************************* FLOWER PATTERNS ******************************* -->
  <!-- manyflowers: Make 2 basic patterns of flowers (1 and 2).                        -->
  <!--              Copy flower locations for 3, 4.                                    -->
  <!--              Change pattern y and width value to adjust for perspective.        -->
  <pattern id="manyflowers-1" x="0" y="240" width="800" height="220" viewBox="0 0 800 220" patternUnits="userSpaceOnUse">
    <use xlink:href="#flower-front" transform="translate(200,190) scale(0.9)" />
    <use xlink:href="#flower" transform="translate(75,200)" />
    <use xlink:href="#flower" transform="translate(250,200) scale(-1, 1)" />
    <use xlink:href="#flower" transform="translate(600,200) scale(-0.8, 0.8)" />
    <use xlink:href="#flower" transform="translate(400,215)" />
    <use xlink:href="#flower" transform="translate(350,220) scale(1.1)" />
    <use xlink:href="#flower-front" transform="translate(500,220) scale(1.1)" />
  </pattern>
  <pattern id="manyflowers-2" x="0" y="220" width="600" height="220" viewBox="0 0 800 220" patternUnits="userSpaceOnUse">
    <use xlink:href="#flower-front" transform="translate(100,190) rotate(-5) scale(-0.8,1)" />
    <use xlink:href="#flower" transform="translate(30,200) scale(-1,1)" />
    <use xlink:href="#flower" transform="translate(250,200)" />
    <use xlink:href="#flower" transform="translate(700,200) scale(-1, 0.8)" />
    <use xlink:href="#flower" transform="translate(620,215)" />
    <use xlink:href="#flower-front" transform="translate(300,220) rotate(10) scale(-1.1,1)" />
    <use xlink:href="#flower-front" transform="translate(500,220) scale(1.1)" />
  </pattern>
  <pattern id="manyflowers-3" x="0" y="210" width="400" height="220" viewBox="0 -30 800 220" patternUnits="userSpaceOnUse">
    <use xlink:href="#flower-front" transform="translate(200,190) scale(0.9)" />
    <use xlink:href="#flower" transform="translate(75,200)" />
    <use xlink:href="#flower" transform="translate(250,200) scale(-1, 1)" />
    <use xlink:href="#flower" transform="translate(600,200) scale(-0.8, 0.8)" />
    <use xlink:href="#flower" transform="translate(400,215)" />
    <use xlink:href="#flower" transform="translate(350,220) scale(1.1)" />
    <use xlink:href="#flower-front" transform="translate(500,220) scale(1.1)" />
  </pattern>
  <pattern id="manyflowers-4" x="0" y="200" width="200" height="220" viewBox="0 0 800 220" patternUnits="userSpaceOnUse">
    <use xlink:href="#flower-front" transform="translate(100,190) rotate(-5) scale(-0.8,1)" />
    <use xlink:href="#flower" transform="translate(30,200) scale(-1,1)" />
    <use xlink:href="#flower" transform="translate(250,200)" />
    <use xlink:href="#flower" transform="translate(700,200) scale(-1, 0.8)" />
    <use xlink:href="#flower" transform="translate(620,215)" />
    <use xlink:href="#flower-front" transform="translate(300,220) rotate(10) scale(-1.1,1)" />
    <use xlink:href="#flower-front" transform="translate(500,220) scale(1.1)" />
  </pattern>

  <!-- allflowers: Make 1 basic pattern of flowers to fill entire pattern.            -->
  <!--             Be careful with overlap at edges since ASV 3 does not overlap.     -->
  <!--             Change pattern y and width value to adjust for perspective.        -->
  <pattern id="allflowers-1" x="0" y="350" width="300" height="100" viewBox="0 0 300 100"
      patternUnits="userSpaceOnUse" overflow="visible">
    <use xlink:href="#bloom-front" transform="translate(40,18) scale(1, 0.4)" />
    <use xlink:href="#bloom-front" transform="translate(260,18) scale(1, 0.4)" />
    <use xlink:href="#bloom-front" transform="translate(80,20) rotate(10) scale(1, 0.4)" />
    <use xlink:href="#bloom-rear" transform="translate(120,25) rotate(-10) scale(1, 0.4)" />
    <use xlink:href="#bloom-front" transform="translate(180,20) rotate(-10) scale(1, 0.4)" />
    <use xlink:href="#bloom-front" transform="translate(280,40) scale(1.1, 0.5)"/>
    <use xlink:href="#bloom-front" transform="translate(-20,40) scale(1.1, 0.5)"/>
    <use xlink:href="#bloom-rear" transform="translate(200,45) "/>
    <use xlink:href="#bloom-front" transform="translate(50,50) scale(0.8)" />
    <use xlink:href="#bloom-front" transform="translate(120,55) "/>
    <use xlink:href="#bloom-front" transform="translate(260,50) scale(0.7) "/>
    <use xlink:href="#bloom-front" transform="translate(65,80) rotate(10) scale(1, 0.4)" />
    <use xlink:href="#bloom-front" transform="translate(180,75) rotate(-10) scale(1, 0.5)" />
    <use xlink:href="#bloom-front" transform="translate(240,80) scale(0.8,0.5)"/>
    <use xlink:href="#bloom-front" transform="translate(0,80) scale(1, 0.4)" />
    <use xlink:href="#bloom-front" transform="translate(300,80) scale(1, 0.4)" />
  </pattern>
  <pattern id="allflowers-1-moving" x="0" y="350" width="300" height="100" viewBox="0 0 300 100"
      patternUnits="userSpaceOnUse" overflow="visible">
    <animate attributeName="x" by="-116.26" dur="1s" repeatDur="indefinite" additive="sum" accumulate="sum" />
    <use xlink:href="#bloom-front" transform="translate(40,18) scale(1, 0.4)" />
    <use xlink:href="#bloom-front" transform="translate(260,18) scale(1, 0.4)" />
    <use xlink:href="#bloom-front" transform="translate(80,20) rotate(10) scale(1, 0.4)" />
    <use xlink:href="#bloom-rear" transform="translate(120,25) rotate(-10) scale(1, 0.4)" />
    <use xlink:href="#bloom-front" transform="translate(180,20) rotate(-10) scale(1, 0.4)" />
    <use xlink:href="#bloom-front" transform="translate(280,40) scale(1.1, 0.5)"/>
    <use xlink:href="#bloom-front" transform="translate(-20,40) scale(1.1, 0.5)"/>
    <use xlink:href="#bloom-rear" transform="translate(200,45) "/>
    <use xlink:href="#bloom-front" transform="translate(50,50) scale(0.8)" />
    <use xlink:href="#bloom-front" transform="translate(120,55) "/>
    <use xlink:href="#bloom-front" transform="translate(260,50) scale(0.7) "/>
    <use xlink:href="#bloom-front" transform="translate(65,80) rotate(10) scale(1, 0.4)" />
    <use xlink:href="#bloom-front" transform="translate(180,75) rotate(-10) scale(1, 0.5)" />
    <use xlink:href="#bloom-front" transform="translate(240,80) scale(0.8,0.5)"/>
    <use xlink:href="#bloom-front" transform="translate(0,80) scale(1, 0.4)" />
    <use xlink:href="#bloom-front" transform="translate(300,80) scale(1, 0.4)" />
  </pattern>
  <pattern id="allflowers-2" x="0" y="285" width="200" height="100" viewBox="0 0 300 100"
      patternUnits="userSpaceOnUse" overflow="visible">
    <use xlink:href="#bloom-front" transform="translate(40,18) scale(1, 0.4)" />
    <use xlink:href="#bloom-front" transform="translate(260,18) scale(1, 0.4)" />
    <use xlink:href="#bloom-front" transform="translate(80,20) rotate(10) scale(1, 0.4)" />
    <use xlink:href="#bloom-rear" transform="translate(120,25) rotate(-10) scale(1, 0.4)" />
    <use xlink:href="#bloom-front" transform="translate(180,20) rotate(-10) scale(1, 0.4)" />
    <use xlink:href="#bloom-front" transform="translate(280,40) scale(1.1, 0.5)"/>
    <use xlink:href="#bloom-front" transform="translate(-20,40) scale(1.1, 0.5)"/>
    <use xlink:href="#bloom-rear" transform="translate(200,45) "/>
    <use xlink:href="#bloom-front" transform="translate(50,50) scale(0.8)" />
    <use xlink:href="#bloom-front" transform="translate(120,55) "/>
    <use xlink:href="#bloom-front" transform="translate(260,50) scale(0.7) "/>
    <use xlink:href="#bloom-front" transform="translate(65,80) rotate(10) scale(1, 0.4)" />
    <use xlink:href="#bloom-front" transform="translate(180,75) rotate(-10) scale(1, 0.5)" />
    <use xlink:href="#bloom-front" transform="translate(240,80) scale(0.8,0.5)"/>
    <use xlink:href="#bloom-front" transform="translate(0,80) scale(1, 0.4)" />
    <use xlink:href="#bloom-front" transform="translate(300,80) scale(1, 0.4)" />
  </pattern>
  <pattern id="allflowers-2-moving" x="0" y="285" width="200" height="100" viewBox="0 0 300 100"
      patternUnits="userSpaceOnUse" overflow="visible">
    <animate attributeName="x" by="-116.26" dur="1s" repeatDur="indefinite" additive="sum" accumulate="sum" />
    <use xlink:href="#bloom-front" transform="translate(40,18) scale(1, 0.4)" />
    <use xlink:href="#bloom-front" transform="translate(260,18) scale(1, 0.4)" />
    <use xlink:href="#bloom-front" transform="translate(80,20) rotate(10) scale(1, 0.4)" />
    <use xlink:href="#bloom-rear" transform="translate(120,25) rotate(-10) scale(1, 0.4)" />
    <use xlink:href="#bloom-front" transform="translate(180,20) rotate(-10) scale(1, 0.4)" />
    <use xlink:href="#bloom-front" transform="translate(280,40) scale(1.1, 0.5)"/>
    <use xlink:href="#bloom-front" transform="translate(-20,40) scale(1.1, 0.5)"/>
    <use xlink:href="#bloom-rear" transform="translate(200,45) "/>
    <use xlink:href="#bloom-front" transform="translate(50,50) scale(0.8)" />
    <use xlink:href="#bloom-front" transform="translate(120,55) "/>
    <use xlink:href="#bloom-front" transform="translate(260,50) scale(0.7) "/>
    <use xlink:href="#bloom-front" transform="translate(65,80) rotate(10) scale(1, 0.4)" />
    <use xlink:href="#bloom-front" transform="translate(180,75) rotate(-10) scale(1, 0.5)" />
    <use xlink:href="#bloom-front" transform="translate(240,80) scale(0.8,0.5)"/>
    <use xlink:href="#bloom-front" transform="translate(0,80) scale(1, 0.4)" />
    <use xlink:href="#bloom-front" transform="translate(300,80) scale(1, 0.4)" />
  </pattern>
  <pattern id="allflowers-3" x="0" y="250" width="100" height="100" viewBox="0 0 300 100"
      patternUnits="userSpaceOnUse" overflow="visible">
    <use xlink:href="#bloom-front" transform="translate(40,18) scale(1, 0.4)" />
    <use xlink:href="#bloom-front" transform="translate(260,18) scale(1, 0.4)" />
    <use xlink:href="#bloom-front" transform="translate(80,20) rotate(10) scale(1, 0.4)" />
    <use xlink:href="#bloom-rear" transform="translate(120,25) rotate(-10) scale(1, 0.4)" />
    <use xlink:href="#bloom-front" transform="translate(180,20) rotate(-10) scale(1, 0.4)" />
    <use xlink:href="#bloom-front" transform="translate(280,40) scale(1.1, 0.5)"/>
    <use xlink:href="#bloom-front" transform="translate(-20,40) scale(1.1, 0.5)"/>
    <use xlink:href="#bloom-rear" transform="translate(200,45) "/>
    <use xlink:href="#bloom-front" transform="translate(50,50) scale(0.8)" />
    <use xlink:href="#bloom-front" transform="translate(120,55) "/>
    <use xlink:href="#bloom-front" transform="translate(260,50) scale(0.7) "/>
    <use xlink:href="#bloom-front" transform="translate(65,80) rotate(10) scale(1, 0.4)" />
    <use xlink:href="#bloom-front" transform="translate(180,75) rotate(-10) scale(1, 0.5)" />
    <use xlink:href="#bloom-front" transform="translate(240,80) scale(0.8,0.5)"/>
    <use xlink:href="#bloom-front" transform="translate(0,80) scale(1, 0.4)" />
    <use xlink:href="#bloom-front" transform="translate(300,80) scale(1, 0.4)" />
  </pattern>
  <pattern id="allflowers-3-moving" x="0" y="250" width="100" height="100" viewBox="0 0 300 100"
      patternUnits="userSpaceOnUse" overflow="visible">
    <animate attributeName="x" by="-116.26" dur="1s" repeatDur="indefinite" additive="sum" accumulate="sum" />
    <use xlink:href="#bloom-front" transform="translate(40,18) scale(1, 0.4)" />
    <use xlink:href="#bloom-front" transform="translate(260,18) scale(1, 0.4)" />
    <use xlink:href="#bloom-front" transform="translate(80,20) rotate(10) scale(1, 0.4)" />
    <use xlink:href="#bloom-rear" transform="translate(120,25) rotate(-10) scale(1, 0.4)" />
    <use xlink:href="#bloom-front" transform="translate(180,20) rotate(-10) scale(1, 0.4)" />
    <use xlink:href="#bloom-front" transform="translate(280,40) scale(1.1, 0.5)"/>
    <use xlink:href="#bloom-front" transform="translate(-20,40) scale(1.1, 0.5)"/>
    <use xlink:href="#bloom-rear" transform="translate(200,45) "/>
    <use xlink:href="#bloom-front" transform="translate(50,50) scale(0.8)" />
    <use xlink:href="#bloom-front" transform="translate(120,55) "/>
    <use xlink:href="#bloom-front" transform="translate(260,50) scale(0.7) "/>
    <use xlink:href="#bloom-front" transform="translate(65,80) rotate(10) scale(1, 0.4)" />
    <use xlink:href="#bloom-front" transform="translate(180,75) rotate(-10) scale(1, 0.5)" />
    <use xlink:href="#bloom-front" transform="translate(240,80) scale(0.8,0.5)"/>
    <use xlink:href="#bloom-front" transform="translate(0,80) scale(1, 0.4)" />
    <use xlink:href="#bloom-front" transform="translate(300,80) scale(1, 0.4)" />
  </pattern>
  <pattern id="allflowers-top" x="0" y="0" width="400" height="400" viewBox="0 0 480 480"
      patternUnits="userSpaceOnUse" overflow="visible">
    <g id="topborder">
      <use xlink:href="#bloom-front" transform="translate(0,0) " />
      <use xlink:href="#bloom-front" transform="translate(60,5) scale(1.2) " />
      <use xlink:href="#bloom-front" transform="translate(120,3) " />
      <use xlink:href="#bloom-front" transform="translate(180,-15) " />
      <use xlink:href="#bloom-front" transform="translate(240,10) " />
      <use xlink:href="#bloom-front" transform="translate(300,2) scale(1.2) " />
      <use xlink:href="#bloom-front" transform="translate(360,8) " />
      <use xlink:href="#bloom-front" transform="translate(420,4) " />
      <use xlink:href="#bloom-front" transform="translate(480,0) " />
    </g>

    <use xlink:href="#bloom-front" transform="translate(8,64) " />
    <use xlink:href="#bloom-front" transform="translate(364,66) " />
    <use xlink:href="#bloom-front" transform="translate(488,64) " />
    <use xlink:href="#bloom-front" transform="translate(65,60) " />
    <use xlink:href="#bloom-front" transform="translate(177,62) " />
    <use xlink:href="#bloom-front" transform="translate(315,70) " />
    <use xlink:href="#bloom-front" transform="translate(423,60) scale(1.2) " />
    <use xlink:href="#bloom-front" transform="translate(242,57) scale(1.2) " />
    <use xlink:href="#bloom-front" transform="translate(115,55) scale(1.2) " />

    <use xlink:href="#bloom-front" transform="translate(-11,120) " />
    <use xlink:href="#bloom-front" transform="translate(233,122) " />
    <use xlink:href="#bloom-front" transform="translate(122,128) " />
    <use xlink:href="#bloom-front" transform="translate(469,120) " />
    <use xlink:href="#bloom-front" transform="translate(287,120) " />
    <use xlink:href="#bloom-front" transform="translate(180,118) scale(1.2) " />
    <use xlink:href="#bloom-front" transform="translate(422,113) " />

    <use xlink:href="#bloom-front" transform="translate(0,182) " />
    <use xlink:href="#bloom-front" transform="translate(345,190) " />
    <use xlink:href="#bloom-front" transform="translate(175,182) " />
    <use xlink:href="#bloom-front" transform="translate(220,178) " />
    <use xlink:href="#bloom-front" transform="translate(422,187) " />
    <use xlink:href="#bloom-front" transform="translate(480,182) " />

    <use xlink:href="#bloom-front" transform="translate(-10,240) " />
    <use xlink:href="#bloom-front" transform="translate(470,240) " />
    <use xlink:href="#bloom-front" transform="translate(172,234) " />
    <use xlink:href="#bloom-front" transform="translate(58,248) " />
    <use xlink:href="#bloom-front" transform="translate(127,230) " />
    <use xlink:href="#bloom-front" transform="translate(249,242) " />
    <use xlink:href="#bloom-front" transform="translate(304,240) " />
    <use xlink:href="#bloom-front" transform="translate(431,250) " />
    <use xlink:href="#bloom-front" transform="translate(345,245) scale(1.2) " />

    <use xlink:href="#bloom-front" transform="translate(63,315) " />
    <use xlink:href="#bloom-front" transform="translate(192,304) " />
    <use xlink:href="#bloom-front" transform="translate(234,292) " />
    <use xlink:href="#bloom-front" transform="translate(313,322) " />
    <use xlink:href="#bloom-front" transform="translate(357,290) scale(1.2) " />
    <use xlink:href="#bloom-front" transform="translate(120,300) scale(1.2) " />
    <use xlink:href="#bloom-front" transform="translate(414,285) " />
    <use xlink:href="#bloom-front" transform="translate(5,305) scale(1.2) " />
    <use xlink:href="#bloom-front" transform="translate(485,305) scale(1.2) " />

    <use xlink:href="#bloom-front" transform="translate(2,350) " />
    <use xlink:href="#bloom-front" transform="translate(72,360) " />
    <use xlink:href="#bloom-front" transform="translate(179,363) " />
    <use xlink:href="#bloom-front" transform="translate(285,360) " />
    <use xlink:href="#bloom-front" transform="translate(353,351) " />
    <use xlink:href="#bloom-front" transform="translate(421,363) scale(1.2) " />
    <use xlink:href="#bloom-front" transform="translate(482,350) " />
    <use xlink:href="#bloom-front" transform="translate(251,355) scale(1.2) " />

    <use xlink:href="#bloom-front" transform="translate(0,420) " />
    <use xlink:href="#bloom-front" transform="translate(58,422) " />
    <use xlink:href="#bloom-front" transform="translate(108,430) " />
    <use xlink:href="#bloom-front" transform="translate(258,410) " />
    <use xlink:href="#bloom-front" transform="translate(323,413) " />
    <use xlink:href="#bloom-front" transform="translate(362,420) scale(1.1) " />
    <use xlink:href="#bloom-front" transform="translate(434,409) " />
    <use xlink:href="#bloom-front" transform="translate(480,420) " />
    <use xlink:href="#bloom-front" transform="translate(193,434) scale(1.2) " />

    <use id="bottomborder" xlink:href="#topborder" transform="translate(0,480) "/>

    <use xlink:href="#bloom-front" transform="translate(303,180) scale(1.4) " />
    <use xlink:href="#bloom-front" transform="translate(62,135) scale(1.4) " />
    <use xlink:href="#bloom-front" transform="translate(354,115) scale(1.4) " />
    <use xlink:href="#bloom-front" transform="translate(135,372) scale(1.4) " />
    <use xlink:href="#bloom-front" transform="translate(70,173) scale(1.4) " />
    <use xlink:href="#bloom-front" transform="translate(110,180) scale(1.4) " />

  </pattern>

</svg>
